<?xml version="1.0" encoding="utf-8" standalone="no"?>
<!DOCTYPE svg PUBLIC "-//W3C//DTD SVG 1.1//EN"
  "http://www.w3.org/Graphics/SVG/1.1/DTD/svg11.dtd">
<svg xmlns:xlink="http://www.w3.org/1999/xlink" width="791.688375pt" height="471.551346pt" viewBox="0 0 791.688375 471.551346" xmlns="http://www.w3.org/2000/svg" version="1.1">
 <metadata>
  <rdf:RDF xmlns:dc="http://purl.org/dc/elements/1.1/" xmlns:cc="http://creativecommons.org/ns#" xmlns:rdf="http://www.w3.org/1999/02/22-rdf-syntax-ns#">
   <cc:Work>
    <dc:type rdf:resource="http://purl.org/dc/dcmitype/StillImage"/>
    <dc:date>2026-09-24T13:20:03.923856</dc:date>
    <dc:format>image/svg+xml</dc:format>
    <dc:creator>
     <cc:Agent>
      <dc:title>Matplotlib v3.11.2, https://matplotlib.org/</dc:title>
     </cc:Agent>
    </dc:creator>
   </cc:Work>
  </rdf:RDF>
 </metadata>
 <defs>
  <style type="text/css">*{stroke-linejoin: round; stroke-linecap: butt}</style>
 </defs>
 <g id="figure_1">
  <g id="patch_1">
   <path d="M 0 471.551346 
L 791.688375 471.551346 
L 791.688375 0 
L 0 0 
z
" style="fill: #ffffff"/>
  </g>
  <g id="axes_1">
   <g id="patch_2">
    <path d="M 94.584375 403.949159 
L 788.088375 403.949159 
L 788.088375 41.069159 
L 94.584375 41.069159 
z
" style="fill: #ffffff"/>
   </g>
   <g id="matplotlib.axis_1">
    <g id="xtick_1">
     <g id="line2d_1">
      <path d="M 125.017913 403.949159 
L 125.017913 41.069159 
" clip-path="url(#p09c70ee7cd)" style="fill: none; stroke: #e5e7e9; stroke-width: 0.65; stroke-linecap: square"/>
     </g>
     <g id="line2d_2">
      <defs>
       <path id="ma327984731" d="M 0 0 
L 0 3 
" style="stroke: #000000; stroke-width: 0.8"/>
      </defs>
      <g>
       <use xlink:href="#ma327984731" x="125.017913" y="403.949159" style="stroke: #000000; stroke-width: 0.8"/>
      </g>
     </g>
     <g id="text_1">
      <text style="font-size: 22px; font-family: 'DejaVu Sans'; text-anchor: middle" x="125.017913" y="427.664002" transform="rotate(-0 125.017913 427.664002)">0.1</text>
     </g>
    </g>
    <g id="xtick_2">
     <g id="line2d_3">
      <path d="M 214.508462 403.949159 
L 214.508462 41.069159 
" clip-path="url(#p09c70ee7cd)" style="fill: none; stroke: #e5e7e9; stroke-width: 0.65; stroke-linecap: square"/>
     </g>
     <g id="line2d_4">
      <g>
       <use xlink:href="#ma327984731" x="214.508462" y="403.949159" style="stroke: #000000; stroke-width: 0.8"/>
      </g>
     </g>
     <g id="text_2">
      <text style="font-size: 22px; font-family: 'DejaVu Sans'; text-anchor: middle" x="214.508462" y="427.664002" transform="rotate(-0 214.508462 427.664002)">0.2</text>
     </g>
    </g>
    <g id="xtick_3">
     <g id="line2d_5">
      <path d="M 332.808533 403.949159 
L 332.808533 41.069159 
" clip-path="url(#p09c70ee7cd)" style="fill: none; stroke: #e5e7e9; stroke-width: 0.65; stroke-linecap: square"/>
     </g>
     <g id="line2d_6">
      <g>
       <use xlink:href="#ma327984731" x="332.808533" y="403.949159" style="stroke: #000000; stroke-width: 0.8"/>
      </g>
     </g>
     <g id="text_3">
      <text style="font-size: 22px; font-family: 'DejaVu Sans'; text-anchor: middle" x="332.808533" y="427.664002" transform="rotate(-0 332.808533 427.664002)">0.5</text>
     </g>
    </g>
    <g id="xtick_4">
     <g id="line2d_7">
      <path d="M 422.299082 403.949159 
L 422.299082 41.069159 
" clip-path="url(#p09c70ee7cd)" style="fill: none; stroke: #e5e7e9; stroke-width: 0.65; stroke-linecap: square"/>
     </g>
     <g id="line2d_8">
      <g>
       <use xlink:href="#ma327984731" x="422.299082" y="403.949159" style="stroke: #000000; stroke-width: 0.8"/>
      </g>
     </g>
     <g id="text_4">
      <text style="font-size: 22px; font-family: 'DejaVu Sans'; text-anchor: middle" x="422.299082" y="427.664002" transform="rotate(-0 422.299082 427.664002)">1</text>
     </g>
    </g>
    <g id="xtick_5">
     <g id="line2d_9">
      <path d="M 511.789631 403.949159 
L 511.789631 41.069159 
" clip-path="url(#p09c70ee7cd)" style="fill: none; stroke: #e5e7e9; stroke-width: 0.65; stroke-linecap: square"/>
     </g>
     <g id="line2d_10">
      <g>
       <use xlink:href="#ma327984731" x="511.789631" y="403.949159" style="stroke: #000000; stroke-width: 0.8"/>
      </g>
     </g>
     <g id="text_5">
      <text style="font-size: 22px; font-family: 'DejaVu Sans'; text-anchor: middle" x="511.789631" y="427.664002" transform="rotate(-0 511.789631 427.664002)">2</text>
     </g>
    </g>
    <g id="xtick_6">
     <g id="line2d_11">
      <path d="M 630.089701 403.949159 
L 630.089701 41.069159 
" clip-path="url(#p09c70ee7cd)" style="fill: none; stroke: #e5e7e9; stroke-width: 0.65; stroke-linecap: square"/>
     </g>
     <g id="line2d_12">
      <g>
       <use xlink:href="#ma327984731" x="630.089701" y="403.949159" style="stroke: #000000; stroke-width: 0.8"/>
      </g>
     </g>
     <g id="text_6">
      <text style="font-size: 22px; font-family: 'DejaVu Sans'; text-anchor: middle" x="630.089701" y="427.664002" transform="rotate(-0 630.089701 427.664002)">5</text>
     </g>
    </g>
    <g id="xtick_7">
     <g id="line2d_13">
      <path d="M 719.58025 403.949159 
L 719.58025 41.069159 
" clip-path="url(#p09c70ee7cd)" style="fill: none; stroke: #e5e7e9; stroke-width: 0.65; stroke-linecap: square"/>
     </g>
     <g id="line2d_14">
      <g>
       <use xlink:href="#ma327984731" x="719.58025" y="403.949159" style="stroke: #000000; stroke-width: 0.8"/>
      </g>
     </g>
     <g id="text_7">
      <text style="font-size: 22px; font-family: 'DejaVu Sans'; text-anchor: middle" x="719.58025" y="427.664002" transform="rotate(-0 719.58025 427.664002)">10</text>
     </g>
    </g>
    <g id="text_8">
     <text style="font-size: 28px; font-family: 'DejaVu Sans'; text-anchor: middle" x="441.336375" y="461.224784" transform="rotate(-0 441.336375 461.224784)">GFLOPs per inference (log scale)</text>
    </g>
   </g>
   <g id="matplotlib.axis_2">
    <g id="ytick_1">
     <g id="line2d_15">
      <path d="M 94.584375 381.325717 
L 788.088375 381.325717 
" clip-path="url(#p09c70ee7cd)" style="fill: none; stroke: #e5e7e9; stroke-width: 0.65; stroke-linecap: square"/>
     </g>
     <g id="line2d_16">
      <defs>
       <path id="mf59f2253f9" d="M 0 0 
L -3 0 
" style="stroke: #000000; stroke-width: 0.8"/>
      </defs>
      <g>
       <use xlink:href="#mf59f2253f9" x="94.584375" y="381.325717" style="stroke: #000000; stroke-width: 0.8"/>
      </g>
     </g>
     <g id="text_9">
      <text style="font-size: 22px; font-family: 'DejaVu Sans'; text-anchor: end" x="87.584375" y="389.683139" transform="rotate(-0 87.584375 389.683139)">0.35</text>
     </g>
    </g>
    <g id="ytick_2">
     <g id="line2d_17">
      <path d="M 94.584375 336.078835 
L 788.088375 336.078835 
" clip-path="url(#p09c70ee7cd)" style="fill: none; stroke: #e5e7e9; stroke-width: 0.65; stroke-linecap: square"/>
     </g>
     <g id="line2d_18">
      <g>
       <use xlink:href="#mf59f2253f9" x="94.584375" y="336.078835" style="stroke: #000000; stroke-width: 0.8"/>
      </g>
     </g>
     <g id="text_10">
      <text style="font-size: 22px; font-family: 'DejaVu Sans'; text-anchor: end" x="87.584375" y="344.436256" transform="rotate(-0 87.584375 344.436256)">0.40</text>
     </g>
    </g>
    <g id="ytick_3">
     <g id="line2d_19">
      <path d="M 94.584375 290.831952 
L 788.088375 290.831952 
" clip-path="url(#p09c70ee7cd)" style="fill: none; stroke: #e5e7e9; stroke-width: 0.65; stroke-linecap: square"/>
     </g>
     <g id="line2d_20">
      <g>
       <use xlink:href="#mf59f2253f9" x="94.584375" y="290.831952" style="stroke: #000000; stroke-width: 0.8"/>
      </g>
     </g>
     <g id="text_11">
      <text style="font-size: 22px; font-family: 'DejaVu Sans'; text-anchor: end" x="87.584375" y="299.189374" transform="rotate(-0 87.584375 299.189374)">0.45</text>
     </g>
    </g>
    <g id="ytick_4">
     <g id="line2d_21">
      <path d="M 94.584375 245.585069 
L 788.088375 245.585069 
" clip-path="url(#p09c70ee7cd)" style="fill: none; stroke: #e5e7e9; stroke-width: 0.65; stroke-linecap: square"/>
     </g>
     <g id="line2d_22">
      <g>
       <use xlink:href="#mf59f2253f9" x="94.584375" y="245.585069" style="stroke: #000000; stroke-width: 0.8"/>
      </g>
     </g>
     <g id="text_12">
      <text style="font-size: 22px; font-family: 'DejaVu Sans'; text-anchor: end" x="87.584375" y="253.942491" transform="rotate(-0 87.584375 253.942491)">0.50</text>
     </g>
    </g>
    <g id="ytick_5">
     <g id="line2d_23">
      <path d="M 94.584375 200.338186 
L 788.088375 200.338186 
" clip-path="url(#p09c70ee7cd)" style="fill: none; stroke: #e5e7e9; stroke-width: 0.65; stroke-linecap: square"/>
     </g>
     <g id="line2d_24">
      <g>
       <use xlink:href="#mf59f2253f9" x="94.584375" y="200.338186" style="stroke: #000000; stroke-width: 0.8"/>
      </g>
     </g>
     <g id="text_13">
      <text style="font-size: 22px; font-family: 'DejaVu Sans'; text-anchor: end" x="87.584375" y="208.695608" transform="rotate(-0 87.584375 208.695608)">0.55</text>
     </g>
    </g>
    <g id="ytick_6">
     <g id="line2d_25">
      <path d="M 94.584375 155.091303 
L 788.088375 155.091303 
" clip-path="url(#p09c70ee7cd)" style="fill: none; stroke: #e5e7e9; stroke-width: 0.65; stroke-linecap: square"/>
     </g>
     <g id="line2d_26">
      <g>
       <use xlink:href="#mf59f2253f9" x="94.584375" y="155.091303" style="stroke: #000000; stroke-width: 0.8"/>
      </g>
     </g>
     <g id="text_14">
      <text style="font-size: 22px; font-family: 'DejaVu Sans'; text-anchor: end" x="87.584375" y="163.448725" transform="rotate(-0 87.584375 163.448725)">0.60</text>
     </g>
    </g>
    <g id="ytick_7">
     <g id="line2d_27">
      <path d="M 94.584375 109.844421 
L 788.088375 109.844421 
" clip-path="url(#p09c70ee7cd)" style="fill: none; stroke: #e5e7e9; stroke-width: 0.65; stroke-linecap: square"/>
     </g>
     <g id="line2d_28">
      <g>
       <use xlink:href="#mf59f2253f9" x="94.584375" y="109.844421" style="stroke: #000000; stroke-width: 0.8"/>
      </g>
     </g>
     <g id="text_15">
      <text style="font-size: 22px; font-family: 'DejaVu Sans'; text-anchor: end" x="87.584375" y="118.201842" transform="rotate(-0 87.584375 118.201842)">0.65</text>
     </g>
    </g>
    <g id="ytick_8">
     <g id="line2d_29">
      <path d="M 94.584375 64.597538 
L 788.088375 64.597538 
" clip-path="url(#p09c70ee7cd)" style="fill: none; stroke: #e5e7e9; stroke-width: 0.65; stroke-linecap: square"/>
     </g>
     <g id="line2d_30">
      <g>
       <use xlink:href="#mf59f2253f9" x="94.584375" y="64.597538" style="stroke: #000000; stroke-width: 0.8"/>
      </g>
     </g>
     <g id="text_16">
      <text style="font-size: 22px; font-family: 'DejaVu Sans'; text-anchor: end" x="87.584375" y="72.95496" transform="rotate(-0 87.584375 72.95496)">0.70</text>
     </g>
    </g>
    <g id="text_17">
     <text style="font-size: 28px; font-family: 'DejaVu Sans'; text-anchor: middle" x="24.873438" y="222.509159" transform="rotate(-90 24.873438 222.509159)">Macro-F1</text>
    </g>
   </g>
   <g id="patch_3">
    <path d="M 94.584375 403.949159 
L 94.584375 41.069159 
" style="fill: none; stroke: #000000; stroke-linejoin: miter; stroke-linecap: square"/>
   </g>
   <g id="patch_4">
    <path d="M 788.088375 403.949159 
L 788.088375 41.069159 
" style="fill: none; stroke: #000000; stroke-linejoin: miter; stroke-linecap: square"/>
   </g>
   <g id="patch_5">
    <path d="M 94.584375 403.949159 
L 788.088375 403.949159 
" style="fill: none; stroke: #000000; stroke-linejoin: miter; stroke-linecap: square"/>
   </g>
   <g id="patch_6">
    <path d="M 94.584375 41.069159 
L 788.088375 41.069159 
" style="fill: none; stroke: #000000; stroke-linejoin: miter; stroke-linecap: square"/>
   </g>
   <g id="line2d_31">
    <path d="M 306.238851 122.513548 
L 306.238851 143.327114 
L 306.238851 157.806116 
L 306.238851 179.52462 
L 306.238851 204.862874 
" clip-path="url(#p09c70ee7cd)" style="fill: none; stroke: #6d777e; stroke-opacity: 0.72; stroke-width: 1.05; stroke-linecap: square"/>
   </g>
   <g id="line2d_32">
    <path d="M 231.425203 237.44063 
L 231.425203 289.927014 
L 231.425203 316.170206 
L 231.425203 356.892401 
L 231.425203 372.276341 
" clip-path="url(#p09c70ee7cd)" style="fill: none; stroke: #6d777e; stroke-opacity: 0.72; stroke-width: 1.05; stroke-linecap: square"/>
   </g>
   <g id="line2d_33">
    <path d="M 475.420028 142.422176 
L 475.420028 171.380181 
L 475.420028 187.669059 
L 475.420028 204.862874 
L 475.420028 237.44063 
" clip-path="url(#p09c70ee7cd)" style="fill: none; stroke: #6d777e; stroke-opacity: 0.72; stroke-width: 1.05; stroke-linecap: square"/>
   </g>
   <g id="line2d_34">
    <path d="M 736.564925 262.778884 
L 736.564925 286.307263 
L 736.564925 295.35664 
L 736.564925 317.980081 
L 736.564925 318.885019 
" clip-path="url(#p09c70ee7cd)" style="fill: none; stroke: #6d777e; stroke-opacity: 0.72; stroke-width: 1.05; stroke-linecap: square"/>
   </g>
   <g id="line2d_35">
    <path d="M 386.015009 170.475244 
L 386.015009 184.049308 
L 386.015009 204.862874 
L 386.015009 210.2925 
L 386.015009 239.250505 
" clip-path="url(#p09c70ee7cd)" style="fill: none; stroke: #6d777e; stroke-opacity: 0.72; stroke-width: 1.05; stroke-linecap: square"/>
   </g>
   <g id="line2d_36">
    <path d="M 328.342515 193.098685 
L 328.074935 210.2925 
L 327.806798 220.246815 
L 327.538104 237.44063 
L 326.999032 252.82457 
" clip-path="url(#p09c70ee7cd)" style="fill: none; stroke: #6d777e; stroke-opacity: 0.72; stroke-width: 1.05; stroke-linecap: square"/>
   </g>
   <g id="line2d_37">
    <path d="M 215.793125 159.615992 
L 226.225537 201.243124 
L 217.696465 196.718436 
L 226.225537 259.159134 
L 224.444715 242.870256 
" clip-path="url(#p09c70ee7cd)" style="fill: none; stroke: #6d777e; stroke-opacity: 0.72; stroke-width: 1.05; stroke-linecap: square"/>
   </g>
   <g id="line2d_38">
    <path d="M 496.599086 136.99255 
L 497.467526 168.665368 
L 498.616433 194.90856 
L 501.164692 241.965318 
L 503.181495 261.873947 
" clip-path="url(#p09c70ee7cd)" style="fill: none; stroke: #6d777e; stroke-opacity: 0.72; stroke-width: 1.05; stroke-linecap: square"/>
   </g>
   <g id="line2d_39">
    <path d="M 230.287684 211.197438 
L 217.065131 228.391254 
L 201.620901 253.729508 
L 184.889485 271.828261 
L 165.662363 297.166515 
" clip-path="url(#p09c70ee7cd)" style="fill: none; stroke: #6d777e; stroke-opacity: 0.72; stroke-width: 1.05; stroke-linecap: square"/>
   </g>
   <g id="line2d_40">
    <path d="M 153.827435 180.429558 
L 154.856186 198.528311 
L 153.827435 218.436939 
L 150.691064 229.296191 
L 143.062238 255.539383 
" clip-path="url(#p09c70ee7cd)" style="fill: none; stroke: #6d777e; stroke-opacity: 0.72; stroke-width: 1.05; stroke-linecap: square"/>
   </g>
   <g id="line2d_41">
    <path d="M 299.064363 146.946864 
L 302.047726 173.190057 
L 304.963704 188.573997 
L 308.440495 220.246815 
L 311.826108 235.630755 
" clip-path="url(#p09c70ee7cd)" style="fill: none; stroke: #6d777e; stroke-opacity: 0.72; stroke-width: 1.05; stroke-linecap: square"/>
   </g>
   <g id="line2d_42">
    <defs>
     <path id="m235133754b" d="M 0 2.4 
C 0.636487 2.4 1.246992 2.147121 1.697056 1.697056 
C 2.147121 1.246992 2.4 0.636487 2.4 0 
C 2.4 -0.636487 2.147121 -1.246992 1.697056 -1.697056 
C 1.246992 -2.147121 0.636487 -2.4 0 -2.4 
C -0.636487 -2.4 -1.246992 -2.147121 -1.697056 -1.697056 
C -2.147121 -1.246992 -2.4 -0.636487 -2.4 0 
C -2.4 0.636487 -2.147121 1.246992 -1.697056 1.697056 
C -1.246992 2.147121 -0.636487 2.4 0 2.4 
z
" style="stroke: #6d777e; stroke-width: 0.8"/>
    </defs>
    <g clip-path="url(#p09c70ee7cd)">
     <use xlink:href="#m235133754b" x="306.238851" y="122.513548" style="fill: #ffffff; stroke: #6d777e; stroke-width: 0.8"/>
    </g>
   </g>
   <g id="line2d_43">
    <defs>
     <path id="md66e427ddf" d="M 0 2.4 
C 0.636487 2.4 1.246992 2.147121 1.697056 1.697056 
C 2.147121 1.246992 2.4 0.636487 2.4 0 
C 2.4 -0.636487 2.147121 -1.246992 1.697056 -1.697056 
C 1.246992 -2.147121 0.636487 -2.4 0 -2.4 
C -0.636487 -2.4 -1.246992 -2.147121 -1.697056 -1.697056 
C -2.147121 -1.246992 -2.4 -0.636487 -2.4 0 
C -2.4 0.636487 -2.147121 1.246992 -1.697056 1.697056 
C -1.246992 2.147121 -0.636487 2.4 0 2.4 
z
" style="stroke: #6d777e; stroke-width: 0.8"/>
    </defs>
    <g clip-path="url(#p09c70ee7cd)">
     <use xlink:href="#md66e427ddf" x="306.238851" y="143.327114" style="fill: #dadddf; stroke: #6d777e; stroke-width: 0.8"/>
    </g>
   </g>
   <g id="line2d_44">
    <defs>
     <path id="m539d57053f" d="M 0 2.4 
C 0.636487 2.4 1.246992 2.147121 1.697056 1.697056 
C 2.147121 1.246992 2.4 0.636487 2.4 0 
C 2.4 -0.636487 2.147121 -1.246992 1.697056 -1.697056 
C 1.246992 -2.147121 0.636487 -2.4 0 -2.4 
C -0.636487 -2.4 -1.246992 -2.147121 -1.697056 -1.697056 
C -2.147121 -1.246992 -2.4 -0.636487 -2.4 0 
C -2.4 0.636487 -2.147121 1.246992 -1.697056 1.697056 
C -1.246992 2.147121 -0.636487 2.4 0 2.4 
z
" style="stroke: #6d777e; stroke-width: 0.8"/>
    </defs>
    <g clip-path="url(#p09c70ee7cd)">
     <use xlink:href="#m539d57053f" x="306.238851" y="157.806116" style="fill: #b6bbbe; stroke: #6d777e; stroke-width: 0.8"/>
    </g>
   </g>
   <g id="line2d_45">
    <defs>
     <path id="me0fd6bef1a" d="M 0 2.4 
C 0.636487 2.4 1.246992 2.147121 1.697056 1.697056 
C 2.147121 1.246992 2.4 0.636487 2.4 0 
C 2.4 -0.636487 2.147121 -1.246992 1.697056 -1.697056 
C 1.246992 -2.147121 0.636487 -2.4 0 -2.4 
C -0.636487 -2.4 -1.246992 -2.147121 -1.697056 -1.697056 
C -2.147121 -1.246992 -2.4 -0.636487 -2.4 0 
C -2.4 0.636487 -2.147121 1.246992 -1.697056 1.697056 
C -1.246992 2.147121 -0.636487 2.4 0 2.4 
z
" style="stroke: #6d777e; stroke-width: 0.8"/>
    </defs>
    <g clip-path="url(#p09c70ee7cd)">
     <use xlink:href="#me0fd6bef1a" x="306.238851" y="179.52462" style="fill: #92999e; stroke: #6d777e; stroke-width: 0.8"/>
    </g>
   </g>
   <g id="line2d_46">
    <defs>
     <path id="m56e43b530a" d="M 0 2.4 
C 0.636487 2.4 1.246992 2.147121 1.697056 1.697056 
C 2.147121 1.246992 2.4 0.636487 2.4 0 
C 2.4 -0.636487 2.147121 -1.246992 1.697056 -1.697056 
C 1.246992 -2.147121 0.636487 -2.4 0 -2.4 
C -0.636487 -2.4 -1.246992 -2.147121 -1.697056 -1.697056 
C -2.147121 -1.246992 -2.4 -0.636487 -2.4 0 
C -2.4 0.636487 -2.147121 1.246992 -1.697056 1.697056 
C -1.246992 2.147121 -0.636487 2.4 0 2.4 
z
" style="stroke: #6d777e; stroke-width: 0.8"/>
    </defs>
    <g clip-path="url(#p09c70ee7cd)">
     <use xlink:href="#m56e43b530a" x="306.238851" y="204.862874" style="fill: #6d777e; stroke: #6d777e; stroke-width: 0.8"/>
    </g>
   </g>
   <g id="line2d_47">
    <g clip-path="url(#p09c70ee7cd)">
     <use xlink:href="#m235133754b" x="231.425203" y="237.44063" style="fill: #ffffff; stroke: #6d777e; stroke-width: 0.8"/>
    </g>
   </g>
   <g id="line2d_48">
    <g clip-path="url(#p09c70ee7cd)">
     <use xlink:href="#md66e427ddf" x="231.425203" y="289.927014" style="fill: #dadddf; stroke: #6d777e; stroke-width: 0.8"/>
    </g>
   </g>
   <g id="line2d_49">
    <g clip-path="url(#p09c70ee7cd)">
     <use xlink:href="#m539d57053f" x="231.425203" y="316.170206" style="fill: #b6bbbe; stroke: #6d777e; stroke-width: 0.8"/>
    </g>
   </g>
   <g id="line2d_50">
    <g clip-path="url(#p09c70ee7cd)">
     <use xlink:href="#me0fd6bef1a" x="231.425203" y="356.892401" style="fill: #92999e; stroke: #6d777e; stroke-width: 0.8"/>
    </g>
   </g>
   <g id="line2d_51">
    <g clip-path="url(#p09c70ee7cd)">
     <use xlink:href="#m56e43b530a" x="231.425203" y="372.276341" style="fill: #6d777e; stroke: #6d777e; stroke-width: 0.8"/>
    </g>
   </g>
   <g id="line2d_52">
    <g clip-path="url(#p09c70ee7cd)">
     <use xlink:href="#m235133754b" x="475.420028" y="142.422176" style="fill: #ffffff; stroke: #6d777e; stroke-width: 0.8"/>
    </g>
   </g>
   <g id="line2d_53">
    <g clip-path="url(#p09c70ee7cd)">
     <use xlink:href="#md66e427ddf" x="475.420028" y="171.380181" style="fill: #dadddf; stroke: #6d777e; stroke-width: 0.8"/>
    </g>
   </g>
   <g id="line2d_54">
    <g clip-path="url(#p09c70ee7cd)">
     <use xlink:href="#m539d57053f" x="475.420028" y="187.669059" style="fill: #b6bbbe; stroke: #6d777e; stroke-width: 0.8"/>
    </g>
   </g>
   <g id="line2d_55">
    <g clip-path="url(#p09c70ee7cd)">
     <use xlink:href="#me0fd6bef1a" x="475.420028" y="204.862874" style="fill: #92999e; stroke: #6d777e; stroke-width: 0.8"/>
    </g>
   </g>
   <g id="line2d_56">
    <g clip-path="url(#p09c70ee7cd)">
     <use xlink:href="#m56e43b530a" x="475.420028" y="237.44063" style="fill: #6d777e; stroke: #6d777e; stroke-width: 0.8"/>
    </g>
   </g>
   <g id="line2d_57">
    <g clip-path="url(#p09c70ee7cd)">
     <use xlink:href="#m235133754b" x="736.564925" y="262.778884" style="fill: #ffffff; stroke: #6d777e; stroke-width: 0.8"/>
    </g>
   </g>
   <g id="line2d_58">
    <g clip-path="url(#p09c70ee7cd)">
     <use xlink:href="#md66e427ddf" x="736.564925" y="286.307263" style="fill: #dadddf; stroke: #6d777e; stroke-width: 0.8"/>
    </g>
   </g>
   <g id="line2d_59">
    <g clip-path="url(#p09c70ee7cd)">
     <use xlink:href="#m539d57053f" x="736.564925" y="295.35664" style="fill: #b6bbbe; stroke: #6d777e; stroke-width: 0.8"/>
    </g>
   </g>
   <g id="line2d_60">
    <g clip-path="url(#p09c70ee7cd)">
     <use xlink:href="#me0fd6bef1a" x="736.564925" y="317.980081" style="fill: #92999e; stroke: #6d777e; stroke-width: 0.8"/>
    </g>
   </g>
   <g id="line2d_61">
    <g clip-path="url(#p09c70ee7cd)">
     <use xlink:href="#m56e43b530a" x="736.564925" y="318.885019" style="fill: #6d777e; stroke: #6d777e; stroke-width: 0.8"/>
    </g>
   </g>
   <g id="line2d_62">
    <g clip-path="url(#p09c70ee7cd)">
     <use xlink:href="#m235133754b" x="386.015009" y="170.475244" style="fill: #ffffff; stroke: #6d777e; stroke-width: 0.8"/>
    </g>
   </g>
   <g id="line2d_63">
    <g clip-path="url(#p09c70ee7cd)">
     <use xlink:href="#md66e427ddf" x="386.015009" y="184.049308" style="fill: #dadddf; stroke: #6d777e; stroke-width: 0.8"/>
    </g>
   </g>
   <g id="line2d_64">
    <g clip-path="url(#p09c70ee7cd)">
     <use xlink:href="#m539d57053f" x="386.015009" y="204.862874" style="fill: #b6bbbe; stroke: #6d777e; stroke-width: 0.8"/>
    </g>
   </g>
   <g id="line2d_65">
    <g clip-path="url(#p09c70ee7cd)">
     <use xlink:href="#me0fd6bef1a" x="386.015009" y="210.2925" style="fill: #92999e; stroke: #6d777e; stroke-width: 0.8"/>
    </g>
   </g>
   <g id="line2d_66">
    <g clip-path="url(#p09c70ee7cd)">
     <use xlink:href="#m56e43b530a" x="386.015009" y="239.250505" style="fill: #6d777e; stroke: #6d777e; stroke-width: 0.8"/>
    </g>
   </g>
   <g id="line2d_67">
    <g clip-path="url(#p09c70ee7cd)">
     <use xlink:href="#m235133754b" x="328.342515" y="193.098685" style="fill: #ffffff; stroke: #6d777e; stroke-width: 0.8"/>
    </g>
   </g>
   <g id="line2d_68">
    <g clip-path="url(#p09c70ee7cd)">
     <use xlink:href="#md66e427ddf" x="328.074935" y="210.2925" style="fill: #dadddf; stroke: #6d777e; stroke-width: 0.8"/>
    </g>
   </g>
   <g id="line2d_69">
    <g clip-path="url(#p09c70ee7cd)">
     <use xlink:href="#m539d57053f" x="327.806798" y="220.246815" style="fill: #b6bbbe; stroke: #6d777e; stroke-width: 0.8"/>
    </g>
   </g>
   <g id="line2d_70">
    <g clip-path="url(#p09c70ee7cd)">
     <use xlink:href="#me0fd6bef1a" x="327.538104" y="237.44063" style="fill: #92999e; stroke: #6d777e; stroke-width: 0.8"/>
    </g>
   </g>
   <g id="line2d_71">
    <g clip-path="url(#p09c70ee7cd)">
     <use xlink:href="#m56e43b530a" x="326.999032" y="252.82457" style="fill: #6d777e; stroke: #6d777e; stroke-width: 0.8"/>
    </g>
   </g>
   <g id="line2d_72">
    <g clip-path="url(#p09c70ee7cd)">
     <use xlink:href="#m235133754b" x="215.793125" y="159.615992" style="fill: #ffffff; stroke: #6d777e; stroke-width: 0.8"/>
    </g>
   </g>
   <g id="line2d_73">
    <g clip-path="url(#p09c70ee7cd)">
     <use xlink:href="#md66e427ddf" x="226.225537" y="201.243124" style="fill: #dadddf; stroke: #6d777e; stroke-width: 0.8"/>
    </g>
   </g>
   <g id="line2d_74">
    <g clip-path="url(#p09c70ee7cd)">
     <use xlink:href="#m539d57053f" x="217.696465" y="196.718436" style="fill: #b6bbbe; stroke: #6d777e; stroke-width: 0.8"/>
    </g>
   </g>
   <g id="line2d_75">
    <g clip-path="url(#p09c70ee7cd)">
     <use xlink:href="#me0fd6bef1a" x="226.225537" y="259.159134" style="fill: #92999e; stroke: #6d777e; stroke-width: 0.8"/>
    </g>
   </g>
   <g id="line2d_76">
    <g clip-path="url(#p09c70ee7cd)">
     <use xlink:href="#m56e43b530a" x="224.444715" y="242.870256" style="fill: #6d777e; stroke: #6d777e; stroke-width: 0.8"/>
    </g>
   </g>
   <g id="line2d_77">
    <g clip-path="url(#p09c70ee7cd)">
     <use xlink:href="#m235133754b" x="496.599086" y="136.99255" style="fill: #ffffff; stroke: #6d777e; stroke-width: 0.8"/>
    </g>
   </g>
   <g id="line2d_78">
    <g clip-path="url(#p09c70ee7cd)">
     <use xlink:href="#md66e427ddf" x="497.467526" y="168.665368" style="fill: #dadddf; stroke: #6d777e; stroke-width: 0.8"/>
    </g>
   </g>
   <g id="line2d_79">
    <g clip-path="url(#p09c70ee7cd)">
     <use xlink:href="#m539d57053f" x="498.616433" y="194.90856" style="fill: #b6bbbe; stroke: #6d777e; stroke-width: 0.8"/>
    </g>
   </g>
   <g id="line2d_80">
    <g clip-path="url(#p09c70ee7cd)">
     <use xlink:href="#me0fd6bef1a" x="501.164692" y="241.965318" style="fill: #92999e; stroke: #6d777e; stroke-width: 0.8"/>
    </g>
   </g>
   <g id="line2d_81">
    <g clip-path="url(#p09c70ee7cd)">
     <use xlink:href="#m56e43b530a" x="503.181495" y="261.873947" style="fill: #6d777e; stroke: #6d777e; stroke-width: 0.8"/>
    </g>
   </g>
   <g id="line2d_82">
    <g clip-path="url(#p09c70ee7cd)">
     <use xlink:href="#m235133754b" x="230.287684" y="211.197438" style="fill: #ffffff; stroke: #6d777e; stroke-width: 0.8"/>
    </g>
   </g>
   <g id="line2d_83">
    <g clip-path="url(#p09c70ee7cd)">
     <use xlink:href="#md66e427ddf" x="217.065131" y="228.391254" style="fill: #dadddf; stroke: #6d777e; stroke-width: 0.8"/>
    </g>
   </g>
   <g id="line2d_84">
    <g clip-path="url(#p09c70ee7cd)">
     <use xlink:href="#m539d57053f" x="201.620901" y="253.729508" style="fill: #b6bbbe; stroke: #6d777e; stroke-width: 0.8"/>
    </g>
   </g>
   <g id="line2d_85">
    <g clip-path="url(#p09c70ee7cd)">
     <use xlink:href="#me0fd6bef1a" x="184.889485" y="271.828261" style="fill: #92999e; stroke: #6d777e; stroke-width: 0.8"/>
    </g>
   </g>
   <g id="line2d_86">
    <g clip-path="url(#p09c70ee7cd)">
     <use xlink:href="#m56e43b530a" x="165.662363" y="297.166515" style="fill: #6d777e; stroke: #6d777e; stroke-width: 0.8"/>
    </g>
   </g>
   <g id="line2d_87">
    <g clip-path="url(#p09c70ee7cd)">
     <use xlink:href="#m235133754b" x="153.827435" y="180.429558" style="fill: #ffffff; stroke: #6d777e; stroke-width: 0.8"/>
    </g>
   </g>
   <g id="line2d_88">
    <g clip-path="url(#p09c70ee7cd)">
     <use xlink:href="#md66e427ddf" x="154.856186" y="198.528311" style="fill: #dadddf; stroke: #6d777e; stroke-width: 0.8"/>
    </g>
   </g>
   <g id="line2d_89">
    <g clip-path="url(#p09c70ee7cd)">
     <use xlink:href="#m539d57053f" x="153.827435" y="218.436939" style="fill: #b6bbbe; stroke: #6d777e; stroke-width: 0.8"/>
    </g>
   </g>
   <g id="line2d_90">
    <g clip-path="url(#p09c70ee7cd)">
     <use xlink:href="#me0fd6bef1a" x="150.691064" y="229.296191" style="fill: #92999e; stroke: #6d777e; stroke-width: 0.8"/>
    </g>
   </g>
   <g id="line2d_91">
    <g clip-path="url(#p09c70ee7cd)">
     <use xlink:href="#m56e43b530a" x="143.062238" y="255.539383" style="fill: #6d777e; stroke: #6d777e; stroke-width: 0.8"/>
    </g>
   </g>
   <g id="line2d_92">
    <g clip-path="url(#p09c70ee7cd)">
     <use xlink:href="#m235133754b" x="299.064363" y="146.946864" style="fill: #ffffff; stroke: #6d777e; stroke-width: 0.8"/>
    </g>
   </g>
   <g id="line2d_93">
    <g clip-path="url(#p09c70ee7cd)">
     <use xlink:href="#md66e427ddf" x="302.047726" y="173.190057" style="fill: #dadddf; stroke: #6d777e; stroke-width: 0.8"/>
    </g>
   </g>
   <g id="line2d_94">
    <g clip-path="url(#p09c70ee7cd)">
     <use xlink:href="#m539d57053f" x="304.963704" y="188.573997" style="fill: #b6bbbe; stroke: #6d777e; stroke-width: 0.8"/>
    </g>
   </g>
   <g id="line2d_95">
    <g clip-path="url(#p09c70ee7cd)">
     <use xlink:href="#me0fd6bef1a" x="308.440495" y="220.246815" style="fill: #92999e; stroke: #6d777e; stroke-width: 0.8"/>
    </g>
   </g>
   <g id="line2d_96">
    <g clip-path="url(#p09c70ee7cd)">
     <use xlink:href="#m56e43b530a" x="311.826108" y="235.630755" style="fill: #6d777e; stroke: #6d777e; stroke-width: 0.8"/>
    </g>
   </g>
   <g id="line2d_97">
    <path d="M 313.336156 89.030855 
L 299.399272 128.848111 
L 284.526634 122.513548 
L 265.559503 158.711054 
L 248.87729 174.999932 
" clip-path="url(#p09c70ee7cd)" style="fill: none; stroke-dasharray: 7.03,3.04; stroke-dashoffset: 0; stroke: #9c8abb; stroke-width: 1.9"/>
   </g>
   <g id="legend_1">
    <g id="patch_7">
     <path d="M 110.43407 36.351719 
L 772.23868 36.351719 
L 772.23868 3.6 
L 110.43407 3.6 
z
" style="fill: #ffffff; stroke: #b9b9b9; stroke-width: 0.6; stroke-linejoin: miter"/>
    </g>
    <g id="line2d_98"/>
    <g id="text_18">
     <text style="font-size: 22px; font-family: 'DejaVu Sans'; text-anchor: start" x="137.30907" y="25.691562" transform="rotate(-0 137.30907 25.691562)">Modality missingness:</text>
    </g>
    <g id="line2d_99">
     <defs>
      <path id="m7e5c1d78fb" d="M 0 3 
C 0.795609 3 1.55874 2.683901 2.12132 2.12132 
C 2.683901 1.55874 3 0.795609 3 0 
C 3 -0.795609 2.683901 -1.55874 2.12132 -2.12132 
C 1.55874 -2.683901 0.795609 -3 0 -3 
C -0.795609 -3 -1.55874 -2.683901 -2.12132 -2.12132 
C -2.683901 -1.55874 -3 -0.795609 -3 0 
C -3 0.795609 -2.683901 1.55874 -2.12132 2.12132 
C -1.55874 2.683901 -0.795609 3 0 3 
z
" style="stroke: #6d777e"/>
     </defs>
     <g>
      <use xlink:href="#m7e5c1d78fb" x="398.632508" y="18.166562" style="fill: #ffffff; stroke: #6d777e"/>
     </g>
    </g>
    <g id="text_19">
     <text style="font-size: 21.5px; font-family: 'DejaVu Sans'; text-anchor: start" x="412.607508" y="25.691562" transform="rotate(-0 412.607508 25.691562)">0%</text>
    </g>
    <g id="line2d_100">
     <defs>
      <path id="m730b31854b" d="M 0 3 
C 0.795609 3 1.55874 2.683901 2.12132 2.12132 
C 2.683901 1.55874 3 0.795609 3 0 
C 3 -0.795609 2.683901 -1.55874 2.12132 -2.12132 
C 1.55874 -2.683901 0.795609 -3 0 -3 
C -0.795609 -3 -1.55874 -2.683901 -2.12132 -2.12132 
C -2.683901 -1.55874 -3 -0.795609 -3 0 
C -3 0.795609 -2.683901 1.55874 -2.12132 2.12132 
C -1.55874 2.683901 -0.795609 3 0 3 
z
" style="stroke: #6d777e"/>
     </defs>
     <g>
      <use xlink:href="#m730b31854b" x="464.990242" y="18.166562" style="fill: #dadddf; stroke: #6d777e"/>
     </g>
    </g>
    <g id="text_20">
     <text style="font-size: 21.5px; font-family: 'DejaVu Sans'; text-anchor: start" x="478.965242" y="25.691562" transform="rotate(-0 478.965242 25.691562)">10%</text>
    </g>
    <g id="line2d_101">
     <defs>
      <path id="md9501b41d4" d="M 0 3 
C 0.795609 3 1.55874 2.683901 2.12132 2.12132 
C 2.683901 1.55874 3 0.795609 3 0 
C 3 -0.795609 2.683901 -1.55874 2.12132 -2.12132 
C 1.55874 -2.683901 0.795609 -3 0 -3 
C -0.795609 -3 -1.55874 -2.683901 -2.12132 -2.12132 
C -2.683901 -1.55874 -3 -0.795609 -3 0 
C -3 0.795609 -2.683901 1.55874 -2.12132 2.12132 
C -1.55874 2.683901 -0.795609 3 0 3 
z
" style="stroke: #6d777e"/>
     </defs>
     <g>
      <use xlink:href="#md9501b41d4" x="545.027352" y="18.166562" style="fill: #b6bbbe; stroke: #6d777e"/>
     </g>
    </g>
    <g id="text_21">
     <text style="font-size: 21.5px; font-family: 'DejaVu Sans'; text-anchor: start" x="559.002352" y="25.691562" transform="rotate(-0 559.002352 25.691562)">20%</text>
    </g>
    <g id="line2d_102">
     <defs>
      <path id="m33f48ad305" d="M 0 3 
C 0.795609 3 1.55874 2.683901 2.12132 2.12132 
C 2.683901 1.55874 3 0.795609 3 0 
C 3 -0.795609 2.683901 -1.55874 2.12132 -2.12132 
C 1.55874 -2.683901 0.795609 -3 0 -3 
C -0.795609 -3 -1.55874 -2.683901 -2.12132 -2.12132 
C -2.683901 -1.55874 -3 -0.795609 -3 0 
C -3 0.795609 -2.683901 1.55874 -2.12132 2.12132 
C -1.55874 2.683901 -0.795609 3 0 3 
z
" style="stroke: #6d777e"/>
     </defs>
     <g>
      <use xlink:href="#m33f48ad305" x="625.064461" y="18.166562" style="fill: #92999e; stroke: #6d777e"/>
     </g>
    </g>
    <g id="text_22">
     <text style="font-size: 21.5px; font-family: 'DejaVu Sans'; text-anchor: start" x="639.039461" y="25.691562" transform="rotate(-0 639.039461 25.691562)">30%</text>
    </g>
    <g id="line2d_103">
     <defs>
      <path id="mc77e369bc6" d="M 0 3 
C 0.795609 3 1.55874 2.683901 2.12132 2.12132 
C 2.683901 1.55874 3 0.795609 3 0 
C 3 -0.795609 2.683901 -1.55874 2.12132 -2.12132 
C 1.55874 -2.683901 0.795609 -3 0 -3 
C -0.795609 -3 -1.55874 -2.683901 -2.12132 -2.12132 
C -2.683901 -1.55874 -3 -0.795609 -3 0 
C -3 0.795609 -2.683901 1.55874 -2.12132 2.12132 
C -1.55874 2.683901 -0.795609 3 0 3 
z
" style="stroke: #6d777e"/>
     </defs>
     <g>
      <use xlink:href="#mc77e369bc6" x="705.10157" y="18.166562" style="fill: #6d777e; stroke: #6d777e"/>
     </g>
    </g>
    <g id="text_23">
     <text style="font-size: 21.5px; font-family: 'DejaVu Sans'; text-anchor: start" x="719.07657" y="25.691562" transform="rotate(-0 719.07657 25.691562)">40%</text>
    </g>
   </g>
   <g id="line2d_104">
    <defs>
     <path id="mb7dd6800b1" d="M 0 2.9 
C 0.769089 2.9 1.506782 2.594438 2.05061 2.05061 
C 2.594438 1.506782 2.9 0.769089 2.9 0 
C 2.9 -0.769089 2.594438 -1.506782 2.05061 -2.05061 
C 1.506782 -2.594438 0.769089 -2.9 0 -2.9 
C -0.769089 -2.9 -1.506782 -2.594438 -2.05061 -2.05061 
C -2.594438 -1.506782 -2.9 -0.769089 -2.9 0 
C -2.9 0.769089 -2.594438 1.506782 -2.05061 2.05061 
C -1.506782 2.594438 -0.769089 2.9 0 2.9 
z
" style="stroke: #9c8abb; stroke-width: 0.8"/>
    </defs>
    <g clip-path="url(#p09c70ee7cd)">
     <use xlink:href="#mb7dd6800b1" x="313.336156" y="89.030855" style="fill: #ffffff; stroke: #9c8abb; stroke-width: 0.8"/>
    </g>
   </g>
   <g id="line2d_105">
    <defs>
     <path id="mb3852a1ded" d="M 0 2.9 
C 0.769089 2.9 1.506782 2.594438 2.05061 2.05061 
C 2.594438 1.506782 2.9 0.769089 2.9 0 
C 2.9 -0.769089 2.594438 -1.506782 2.05061 -2.05061 
C 1.506782 -2.594438 0.769089 -2.9 0 -2.9 
C -0.769089 -2.9 -1.506782 -2.594438 -2.05061 -2.05061 
C -2.594438 -1.506782 -2.9 -0.769089 -2.9 0 
C -2.9 0.769089 -2.594438 1.506782 -2.05061 2.05061 
C -1.506782 2.594438 -0.769089 2.9 0 2.9 
z
" style="stroke: #9c8abb; stroke-width: 0.8"/>
    </defs>
    <g clip-path="url(#p09c70ee7cd)">
     <use xlink:href="#mb3852a1ded" x="299.399272" y="128.848111" style="fill: #e6e2ee; stroke: #9c8abb; stroke-width: 0.8"/>
    </g>
   </g>
   <g id="line2d_106">
    <defs>
     <path id="mec2ab76c4e" d="M 0 2.9 
C 0.769089 2.9 1.506782 2.594438 2.05061 2.05061 
C 2.594438 1.506782 2.9 0.769089 2.9 0 
C 2.9 -0.769089 2.594438 -1.506782 2.05061 -2.05061 
C 1.506782 -2.594438 0.769089 -2.9 0 -2.9 
C -0.769089 -2.9 -1.506782 -2.594438 -2.05061 -2.05061 
C -2.594438 -1.506782 -2.9 -0.769089 -2.9 0 
C -2.9 0.769089 -2.594438 1.506782 -2.05061 2.05061 
C -1.506782 2.594438 -0.769089 2.9 0 2.9 
z
" style="stroke: #9c8abb; stroke-width: 0.8"/>
    </defs>
    <g clip-path="url(#p09c70ee7cd)">
     <use xlink:href="#mec2ab76c4e" x="284.526634" y="122.513548" style="fill: #cec4dd; stroke: #9c8abb; stroke-width: 0.8"/>
    </g>
   </g>
   <g id="line2d_107">
    <defs>
     <path id="m57fb1b6931" d="M 0 2.9 
C 0.769089 2.9 1.506782 2.594438 2.05061 2.05061 
C 2.594438 1.506782 2.9 0.769089 2.9 0 
C 2.9 -0.769089 2.594438 -1.506782 2.05061 -2.05061 
C 1.506782 -2.594438 0.769089 -2.9 0 -2.9 
C -0.769089 -2.9 -1.506782 -2.594438 -2.05061 -2.05061 
C -2.594438 -1.506782 -2.9 -0.769089 -2.9 0 
C -2.9 0.769089 -2.594438 1.506782 -2.05061 2.05061 
C -1.506782 2.594438 -0.769089 2.9 0 2.9 
z
" style="stroke: #9c8abb; stroke-width: 0.8"/>
    </defs>
    <g clip-path="url(#p09c70ee7cd)">
     <use xlink:href="#m57fb1b6931" x="265.559503" y="158.711054" style="fill: #b5a7cc; stroke: #9c8abb; stroke-width: 0.8"/>
    </g>
   </g>
   <g id="line2d_108">
    <defs>
     <path id="m83e224cac3" d="M 0 2.9 
C 0.769089 2.9 1.506782 2.594438 2.05061 2.05061 
C 2.594438 1.506782 2.9 0.769089 2.9 0 
C 2.9 -0.769089 2.594438 -1.506782 2.05061 -2.05061 
C 1.506782 -2.594438 0.769089 -2.9 0 -2.9 
C -0.769089 -2.9 -1.506782 -2.594438 -2.05061 -2.05061 
C -2.594438 -1.506782 -2.9 -0.769089 -2.9 0 
C -2.9 0.769089 -2.594438 1.506782 -2.05061 2.05061 
C -1.506782 2.594438 -0.769089 2.9 0 2.9 
z
" style="stroke: #9c8abb; stroke-width: 0.8"/>
    </defs>
    <g clip-path="url(#p09c70ee7cd)">
     <use xlink:href="#m83e224cac3" x="248.87729" y="174.999932" style="fill: #9c8abb; stroke: #9c8abb; stroke-width: 0.8"/>
    </g>
   </g>
   <g id="line2d_109">
    <path d="M 240.181613 93.555543 
L 220.807641 116.178984 
L 203.03968 145.136989 
L 184.074924 155.996241 
L 163.763688 189.478934 
" clip-path="url(#p09c70ee7cd)" style="fill: none; stroke: #963e92; stroke-width: 2.8; stroke-linecap: square"/>
   </g>
   <g id="line2d_110">
    <defs>
     <path id="mf81de16432" d="M 0 3.7 
C 0.981251 3.7 1.922446 3.310145 2.616295 2.616295 
C 3.310145 1.922446 3.7 0.981251 3.7 0 
C 3.7 -0.981251 3.310145 -1.922446 2.616295 -2.616295 
C 1.922446 -3.310145 0.981251 -3.7 0 -3.7 
C -0.981251 -3.7 -1.922446 -3.310145 -2.616295 -2.616295 
C -3.310145 -1.922446 -3.7 -0.981251 -3.7 0 
C -3.7 0.981251 -3.310145 1.922446 -2.616295 2.616295 
C -1.922446 3.310145 -0.981251 3.7 0 3.7 
z
" style="stroke: #963e92; stroke-width: 1.1"/>
    </defs>
    <g clip-path="url(#p09c70ee7cd)">
     <use xlink:href="#mf81de16432" x="240.181613" y="93.555543" style="fill: #ffffff; stroke: #963e92; stroke-width: 1.1"/>
    </g>
   </g>
   <g id="line2d_111">
    <defs>
     <path id="m10369a9814" d="M 0 3.7 
C 0.981251 3.7 1.922446 3.310145 2.616295 2.616295 
C 3.310145 1.922446 3.7 0.981251 3.7 0 
C 3.7 -0.981251 3.310145 -1.922446 2.616295 -2.616295 
C 1.922446 -3.310145 0.981251 -3.7 0 -3.7 
C -0.981251 -3.7 -1.922446 -3.310145 -2.616295 -2.616295 
C -3.310145 -1.922446 -3.7 -0.981251 -3.7 0 
C -3.7 0.981251 -3.310145 1.922446 -2.616295 2.616295 
C -1.922446 3.310145 -0.981251 3.7 0 3.7 
z
" style="stroke: #963e92; stroke-width: 1.1"/>
    </defs>
    <g clip-path="url(#p09c70ee7cd)">
     <use xlink:href="#m10369a9814" x="220.807641" y="116.178984" style="fill: #e5cfe4; stroke: #963e92; stroke-width: 1.1"/>
    </g>
   </g>
   <g id="line2d_112">
    <defs>
     <path id="m99a0170486" d="M 0 3.7 
C 0.981251 3.7 1.922446 3.310145 2.616295 2.616295 
C 3.310145 1.922446 3.7 0.981251 3.7 0 
C 3.7 -0.981251 3.310145 -1.922446 2.616295 -2.616295 
C 1.922446 -3.310145 0.981251 -3.7 0 -3.7 
C -0.981251 -3.7 -1.922446 -3.310145 -2.616295 -2.616295 
C -3.310145 -1.922446 -3.7 -0.981251 -3.7 0 
C -3.7 0.981251 -3.310145 1.922446 -2.616295 2.616295 
C -1.922446 3.310145 -0.981251 3.7 0 3.7 
z
" style="stroke: #963e92; stroke-width: 1.1"/>
    </defs>
    <g clip-path="url(#p09c70ee7cd)">
     <use xlink:href="#m99a0170486" x="203.03968" y="145.136989" style="fill: #cb9ec8; stroke: #963e92; stroke-width: 1.1"/>
    </g>
   </g>
   <g id="line2d_113">
    <defs>
     <path id="mc9064b7d93" d="M 0 3.7 
C 0.981251 3.7 1.922446 3.310145 2.616295 2.616295 
C 3.310145 1.922446 3.7 0.981251 3.7 0 
C 3.7 -0.981251 3.310145 -1.922446 2.616295 -2.616295 
C 1.922446 -3.310145 0.981251 -3.7 0 -3.7 
C -0.981251 -3.7 -1.922446 -3.310145 -2.616295 -2.616295 
C -3.310145 -1.922446 -3.7 -0.981251 -3.7 0 
C -3.7 0.981251 -3.310145 1.922446 -2.616295 2.616295 
C -1.922446 3.310145 -0.981251 3.7 0 3.7 
z
" style="stroke: #963e92; stroke-width: 1.1"/>
    </defs>
    <g clip-path="url(#p09c70ee7cd)">
     <use xlink:href="#mc9064b7d93" x="184.074924" y="155.996241" style="fill: #b06ead; stroke: #963e92; stroke-width: 1.1"/>
    </g>
   </g>
   <g id="line2d_114">
    <defs>
     <path id="m47c06807a7" d="M 0 3.7 
C 0.981251 3.7 1.922446 3.310145 2.616295 2.616295 
C 3.310145 1.922446 3.7 0.981251 3.7 0 
C 3.7 -0.981251 3.310145 -1.922446 2.616295 -2.616295 
C 1.922446 -3.310145 0.981251 -3.7 0 -3.7 
C -0.981251 -3.7 -1.922446 -3.310145 -2.616295 -2.616295 
C -3.310145 -1.922446 -3.7 -0.981251 -3.7 0 
C -3.7 0.981251 -3.310145 1.922446 -2.616295 2.616295 
C -1.922446 3.310145 -0.981251 3.7 0 3.7 
z
" style="stroke: #963e92; stroke-width: 1.1"/>
    </defs>
    <g clip-path="url(#p09c70ee7cd)">
     <use xlink:href="#m47c06807a7" x="163.763688" y="189.478934" style="fill: #963e92; stroke: #963e92; stroke-width: 1.1"/>
    </g>
   </g>
   <g id="patch_8">
    <path d="M 180.963278 161.125731 
Q 173.920306 172.735938 168.211034 182.147568 
" style="fill: none; stroke: #963e92; stroke-width: 2.3; stroke-linecap: round"/>
    <path d="M 173.130982 179.050132 
L 168.211034 182.147568 
L 168.685054 176.353148 
z
" style="fill: #963e92; stroke: #963e92; stroke-width: 2.3; stroke-linecap: round"/>
   </g>
   <g id="patch_9">
    <path d="M 327.20098 122.931713 
Q 316.719915 127.926022 306.238851 132.920331 
" style="fill: none; opacity: 0.65; stroke-dasharray: 1.95,1.95; stroke-dashoffset: 0; stroke: #454d53; stroke-width: 0.65; stroke-linecap: round"/>
   </g>
   <g id="text_24">
    <text style="font-size: 22px; font-family: 'DejaVu Sans'; text-anchor: start; fill: #454d53" x="332.808533" y="114.654327" transform="rotate(-0 332.808533 114.654327)">MBT</text>
   </g>
   <g id="patch_10">
    <path d="M 249.622255 364.479039 
Q 240.523729 364.531705 231.425203 364.584371 
" style="fill: none; opacity: 0.65; stroke-dasharray: 1.95,1.95; stroke-dashoffset: 0; stroke: #454d53; stroke-width: 0.65; stroke-linecap: round"/>
   </g>
   <g id="text_25">
    <text style="font-size: 22px; font-family: 'DejaVu Sans'; text-anchor: start; fill: #454d53" x="255.62325" y="369.846746" transform="rotate(-0 255.62325 369.846746)">MAESTRO</text>
   </g>
   <g id="patch_11">
    <path d="M 432.706297 120.028462 
Q 454.063162 138.464821 475.420028 156.901179 
" style="fill: none; opacity: 0.65; stroke-dasharray: 1.95,1.95; stroke-dashoffset: 0; stroke: #454d53; stroke-width: 0.65; stroke-linecap: round"/>
   </g>
   <g id="text_26">
    <text style="font-size: 22px; font-family: 'DejaVu Sans'; text-anchor: start; fill: #454d53" x="427.362773" y="110.130498" transform="rotate(-0 427.362773 110.130498)">ShaSpec</text>
   </g>
   <g id="patch_12">
    <path d="M 684.329414 254.582866 
Q 710.447169 264.56297 736.564925 274.543074 
" style="fill: none; opacity: 0.65; stroke-dasharray: 1.95,1.95; stroke-dashoffset: 0; stroke: #454d53; stroke-width: 0.65; stroke-linecap: round"/>
   </g>
   <g id="text_27">
    <text style="font-size: 22px; font-family: 'DejaVu Sans'; text-anchor: start; fill: #454d53" x="675.362158" y="245.871146" transform="rotate(-0 675.362158 245.871146)">DecALign</text>
   </g>
   <g id="patch_13">
    <path d="M 337.392714 161.202639 
Q 361.703861 169.232458 386.015009 177.262276 
" style="fill: none; opacity: 0.65; stroke-dasharray: 1.95,1.95; stroke-dashoffset: 0; stroke: #454d53; stroke-width: 0.65; stroke-linecap: round"/>
   </g>
   <g id="text_28">
    <text style="font-size: 22px; font-family: 'DejaVu Sans'; text-anchor: start; fill: #454d53" x="327.538104" y="152.662568" transform="rotate(-0 327.538104 152.662568)">MultiModN</text>
   </g>
   <g id="patch_14">
    <path d="M 355.621522 263.861274 
Q 341.445045 254.496937 327.268568 245.1326 
" style="fill: none; opacity: 0.65; stroke-dasharray: 1.95,1.95; stroke-dashoffset: 0; stroke: #454d53; stroke-width: 0.65; stroke-linecap: round"/>
   </g>
   <g id="text_29">
    <text style="font-size: 22px; font-family: 'DejaVu Sans'; text-anchor: start; fill: #454d53" x="347.440124" y="284.782606" transform="rotate(-0 347.440124 284.782606)">DyMo</text>
   </g>
   <g id="patch_15">
    <path d="M 239.694423 255.033607 
Q 232.514775 253.024151 225.335126 251.014695 
" style="fill: none; opacity: 0.65; stroke-dasharray: 1.95,1.95; stroke-dashoffset: 0; stroke: #454d53; stroke-width: 0.65; stroke-linecap: round"/>
   </g>
   <g id="text_30">
    <text style="font-size: 22px; font-family: 'DejaVu Sans'; text-anchor: start; fill: #454d53" x="243.833384" y="274.829151" transform="rotate(-0 243.833384 274.829151)">AdaMML</text>
   </g>
   <g id="patch_16">
    <path d="M 511.854494 146.943582 
Q 504.4439 149.88627 497.033306 152.828959 
" style="fill: none; opacity: 0.65; stroke-dasharray: 1.95,1.95; stroke-dashoffset: 0; stroke: #454d53; stroke-width: 0.65; stroke-linecap: round"/>
   </g>
   <g id="text_31">
    <text style="font-size: 22px; font-family: 'DejaVu Sans'; text-anchor: start; fill: #454d53" x="514.3463" y="138.182706" transform="rotate(-0 514.3463 138.182706)">DyMM</text>
   </g>
   <g id="patch_17">
    <path d="M 137.83919 311.842185 
L 137.83919 284.497388 
L 175.275924 284.497388 
" style="fill: none; opacity: 0.65; stroke-dasharray: 1.95,1.95; stroke-dashoffset: 0; stroke: #454d53; stroke-width: 0.65; stroke-linecap: round"/>
   </g>
   <g id="text_32">
    <text style="font-size: 22px; font-family: 'DejaVu Sans'; text-anchor: start; fill: #454d53" x="112.84169" y="334.554177" transform="rotate(-0 112.84169 334.554177)">GMS</text>
   </g>
   <g id="patch_18">
    <path d="M 130.457813 260.255164 
L 130.457813 242.417787 
L 146.876651 242.417787 
" style="fill: none; opacity: 0.65; stroke-dasharray: 1.95,1.95; stroke-dashoffset: 0; stroke: #454d53; stroke-width: 0.65; stroke-linecap: round"/>
   </g>
   <g id="text_33">
    <text style="font-size: 22px; font-family: 'DejaVu Sans'; text-anchor: start; fill: #454d53" x="107.038126" y="282.972731" transform="rotate(-0 107.038126 282.972731)">JAFA</text>
   </g>
   <g id="patch_19">
    <path d="M 307.32594 227.420016 
Q 308.729621 227.6794 310.133302 227.938785 
" style="fill: none; opacity: 0.65; stroke-dasharray: 1.95,1.95; stroke-dashoffset: 0; stroke: #454d53; stroke-width: 0.65; stroke-linecap: round"/>
   </g>
   <g id="text_34">
    <text style="font-size: 22px; font-family: 'DejaVu Sans'; text-anchor: end; fill: #454d53" x="301.390688" y="225.961658" transform="rotate(-0 301.390688 225.961658)">MMEE</text>
   </g>
   <g id="patch_20">
    <path d="M 345.014075 80.851354 
Q 325.690895 94.895419 306.367714 108.939483 
" style="fill: none; opacity: 0.65; stroke-dasharray: 1.95,1.95; stroke-dashoffset: 0; stroke: #9c8abb; stroke-width: 0.65; stroke-linecap: round"/>
   </g>
   <g id="text_35">
    <text style="font-size: 22px; font-family: 'DejaVu Sans'; text-anchor: start; fill: #9c8abb" x="335.365202" y="71.217319" transform="rotate(-0 335.365202 71.217319)">SeMA</text>
   </g>
   <g id="patch_21">
    <path d="M 253.325423 72.644872 
L 253.325423 104.867263 
L 230.494627 104.867263 
" style="fill: none; opacity: 0.65; stroke-dasharray: 1.95,1.95; stroke-dashoffset: 0; stroke: #963e92; stroke-width: 0.65; stroke-linecap: round"/>
   </g>
   <g id="text_36">
    <text style="font-weight: 700; font-size: 24px; font-family: 'DejaVu Sans'; text-anchor: start; fill: #963e92" x="197.268548" y="60.877599" transform="rotate(-0 197.268548 60.877599)">SeMARC</text>
   </g>
   <g id="text_37">
    <text style="font-size: 21px; font-family: 'DejaVu Sans'; text-anchor: end; fill: #963e92" x="228.181613" y="94.010621" transform="rotate(-0 228.181613 94.010621)">0%</text>
   </g>
   <g id="text_38">
    <text style="font-size: 21px; font-family: 'DejaVu Sans'; text-anchor: end; fill: #963e92" x="208.807641" y="116.634062" transform="rotate(-0 208.807641 116.634062)">10%</text>
   </g>
   <g id="text_39">
    <text style="font-size: 21px; font-family: 'DejaVu Sans'; text-anchor: end; fill: #963e92" x="191.03968" y="141.592067" transform="rotate(-0 191.03968 141.592067)">20%</text>
   </g>
   <g id="text_40">
    <text style="font-size: 21px; font-family: 'DejaVu Sans'; text-anchor: end; fill: #963e92" x="172.074924" y="165.451319" transform="rotate(-0 172.074924 165.451319)">30%</text>
   </g>
   <g id="text_41">
    <text style="font-size: 21px; font-family: 'DejaVu Sans'; text-anchor: start; fill: #963e92" x="163.763688" y="213.934012" transform="rotate(-0 163.763688 213.934012)">40%</text>
   </g>
  </g>
 </g>
 <defs>
  <clipPath id="p09c70ee7cd">
   <rect x="94.584375" y="41.069159" width="693.504" height="362.88"/>
  </clipPath>
 </defs>
</svg>
